<svg id="Layer_1" data-name="Layer 1" xmlns="http://www.w3.org/2000/svg" viewBox="0 0 841.89 595.28"><defs><style>.cls-1,.cls-6{fill:#3b0d3c;}.cls-1{opacity:0.13;}.cls-2{fill:#ff9fb2;}.cls-3{fill:#e22140;}.cls-4{fill:#f0e4f0;}.cls-5{fill:#f8a576;}.cls-7{fill:#f8af82;}.cls-8{fill:#501f57;}.cls-9{fill:#ffd05c;stroke:#ffd05c;}.cls-10,.cls-11,.cls-12,.cls-13,.cls-15,.cls-9{stroke-miterlimit:10;}.cls-10,.cls-11,.cls-12,.cls-15{fill:none;}.cls-10{stroke:#3b0d3c;}.cls-11{stroke:#5f2466;}.cls-12,.cls-13,.cls-15{stroke:#e9a52a;}.cls-13,.cls-14{fill:#e9a52a;}.cls-15{stroke-width:0.75px;}.cls-16{fill:#bcbec0;}.cls-17{fill:#5f2466;}.cls-18{fill:#fff;}.cls-19{fill:#ffebef;}.cls-20{fill:#939598;}</style></defs><path class="cls-1" d="M609,446.37a30,30,0,0,1,7.83-3.73c3.59-1.15,23.66-8.32,26.4-9.48s7.18-2.41,8.53-4.35-.07-2.85-6.65-4.68l-4.72-1.25c-1-.16-2.11-.27-3.17-.35a3.7,3.7,0,0,0-1.62-.73l-4.1-7.88c4-1.94,7.48-3.7,2.31-5.88a.16.16,0,0,0,.08-.05c.69-1.13-4.54-1.73-5.2-1.93a17.39,17.39,0,0,0-2.25-.47,36.06,36.06,0,0,0-6.38-1l-.52,0a125.93,125.93,0,0,0-22.09.17c-2-.54-10.79.73-18.84,1.29-2.93.2-5.87.47-8.67.79a156.7,156.7,0,0,0-20.41,3.54c-9.58,1.87-17.66,3.91-24,5.72A101.86,101.86,0,0,0,508.12,422c-3.35,1.36-6,2.48-7.88,3.37-.85,0-1.85.06-2.86.16-3.31.35-8,.91-12.56,1.74-8.33,1.52-12.67,2.23-15.46,3.13s-2.6,1.12-5.49,1.71-4.64.81-9.76,1.87-6.37,1.61-13.24,2.84l-2.74.49c-1.2.21-1.55.4-1.3.54l-26.23-.19s-5.66-.06-9,0a20.05,20.05,0,0,0-3.9.26,12.67,12.67,0,0,0-3,.94c-1.24.52-5,2.3-5,2.3l-9.84,4.17-1.5-.61s0-.2-2.14-.55-9.55-.54-12.8-.54a113.43,113.43,0,0,0-13.45.54l-8.24.88s-18.92,3.26-20.76,4.65-1.83,2.19.45,2.77,12.28,4.15,12.28,4.15l18,5.3-3.64-.26c.26-.05.32-.11,0-.13l-16.28-.77-7.64-.8c-4.73-.25-4.23-.14-10.74-.27a140.39,140.39,0,0,0-16.21.42c-5.78.39-8.42.14-17.3,1.71-7.57,1.35-5.51.94-9.73,2.19s-3.37,1.65-2.89,2.27,2.68.65,4.17.88c1.68.27,5.54.25,9,.31h.32c.66,0,1.4.05,2.34.06a3.32,3.32,0,0,0,.74.07c3.83,0,11.05,0,17.46-.05.94,0,1.62,0,2.28.06l2.38.06c3.54.16,3.64.33,10.16.37h.2a10.74,10.74,0,0,0,1.41-.07h1c4-.06,8.9,0,13.53,0,2.58.12,5.49.1,10.45.16l3.51.05.84,0h0l2.37.05a7.26,7.26,0,0,0,3-.43v0c1.67,0,3.95-.12,7-.29,6.87-.38,27.07-1.56,27.07-1.56h0a4.62,4.62,0,0,1,.76.12c0,.1,4.36,1.12,4.83,1.2a11.9,11.9,0,0,1,1.8.67c-.2.46.19.87.54,1.35.51.68,9.19.81,11.5.83l5.16.18,11.32.08c1.42,0,4,.06,7,0s4,.06,7.24.22c3,.15,1.91-.06,8.08.35.55.07,1.07.13,1.44.16a14.88,14.88,0,0,0,2.88.11c.5,0,3.34.09,4.28,0a25.37,25.37,0,0,0,3.46-.57A113.16,113.16,0,0,0,469,467.24l3.47-1.22,6.84-.1c23-1.29,10.64-.64,32.46-2.72,15-1.44,21.89-2.67,37.47-4.49,16.15-1.89,28.86-4,28.86-4l-1.11.07a65.74,65.74,0,0,0,8.59-2c4.32-1.34,7-2.58,7.07-2.81a1.23,1.23,0,0,0,0-.2,28.56,28.56,0,0,0,5.17-.27c1.9-.27,3.68-.56,4.3-.74C603.67,448.29,608.14,447.1,609,446.37ZM423.65,464.3l.6-.19.16,0ZM525.28,450a2.44,2.44,0,0,0,.32-.15l.47.08ZM361.91,465l.07,0v0l-.41,0Zm63.12-.72ZM441.66,470l-.13-.17A.64.64,0,0,1,441.66,470Zm26-6.58.25,0-.25,0Zm1.76-.19h.64c-.8,0-1.49.09-1.77.12Zm157.14-43.53a5.23,5.23,0,0,1-1.52-.74.11.11,0,0,1-.06-.12c.16-1.6,2.51-2.95,5-4.2C627.94,416.42,626,418.22,626.58,419.67ZM417,469.64l1.28-.06-.7,0Zm52.41-4.1h0Zm6.06-2.08-1.2.41h0c1.65-.67,1.57-.43.81-.6.88.13,1.71.3,1.65.49A6,6,0,0,0,475.46,463.46Z"/><path class="cls-2" d="M411.33,462.65c13.23-4.77,15-6,17.13-6.07s2.39,1,3.79,2.28,1.83,2.33,4.32,5.8,7.69,6.14,7.69,6.14c-9-2.86-6.79-1.47-10.51-2.37s-5-1.42-8-1.28-5.81-.36-7.15-.21l-11.57-.44-6.41-1.15Z"/><path class="cls-2" d="M403.52,437.81s-2.14-3.72-2.25.83-1.94,12.07-.68,16.52a33.39,33.39,0,0,1,1.3,8v2.31s-11.64-.29-14.74-4.72-5.64-7.7-6.83-13.22.59-10.92,1.3-11.91,2.06-4,5.69-4.5,8.24,1.19,9,1.41C396.31,432.55,403.66,436.85,403.52,437.81Z"/><path class="cls-3" d="M401.58,432.35s1.89.78,7.47,3.36,12.94,6.17,14.21,6.15,3,.69,4.49.19.29-3.08.82-3.85,5-3.6,7.47-5.85,5.38-4.84,5.83-5.24a8.09,8.09,0,0,1,4.41-1.23c1.64.14.84-.11,2.17.91s.63-.39,1.15,3.43,0,.64.47,9.39,1.36,9.83.88,17.42a98.67,98.67,0,0,1-1,10.27c-.37,3,.08,3.36-.62,4s0,.44-1.21.62-1.36.18-3.23-.62-6.77-3.19-7.52-5.17-4.56-6.22-5.86-7.3-.83-2.62-2.67-2.12,2.81-1.37-7.16,2.35a186.22,186.22,0,0,1-19,6c-1.63.42-1.68.13-1.68.13s-.94-8.84-.93-8.83-1.39-4.28-1-6.38.57-10.42.59-12.93a24.5,24.5,0,0,1,.93-5.55Z"/><path class="cls-2" d="M399.13,430.74s7.19,4.95,12.07,6.79,8.16,4.12,13.36,4.66,5.16-1.71,5.16-1.71a26.24,26.24,0,0,0,4.88-3.94c3.47-3.24,4-6.55,6.86-9.06l2.8-2.51a109.79,109.79,0,0,0-11.19.38c-7.59.54-12.37.62-15.36,1.55s-12.94,1.92-13.48,2.53S399.13,430.74,399.13,430.74Z"/><path class="cls-4" d="M286.92,408.24c-5.53-1.41-4.67-.76-11.6-1.52-6.73-.74-8.38-.7-14.86,2.38-4.55,2.17-8,.76-11.82,9.66-3.26,7.59-2.49,5.31-2.71,12.36s1.93,9.32,4.38,12.79,4.76,3.66,7,5c2.54,1.51,6.33,1.39,10,1.73,4.14.39,10.41-5.09,10.41-5.09l20.93-32.1Z"/><path class="cls-3" d="M316.07,417.78s-11.65-2.54-20.25-4.39c-4.95-1.07-8.89-1.91-9-1.91-10.62.11-10.62-3.14-22.33,1.74-7.26,3-4.86,1.74-9.64,6.19-3.7,3.45-3.48,3.35-4.57,7s-1.41,4.44-.32,8.35,1.95,5.74,2.82,6.61-.87,2.28,7.15,6,6.73,4.12,20.17,3.25,17.24,3.66,27.11,2.77c10.17-.91,29.06,1.28,29.06,1.28s-3.13-5.66-3-8.61-.08-4.94,3.39-6.94l.11-.06a4.87,4.87,0,0,0,1.1-7.54L329,422Z"/><path class="cls-5" d="M338.42,438.16s-3.39.4-3.39,5.93.53,6.8.86,7.09c2,1.73,4.92,1.73,10.56-.44s22.05-8.82,22.05-8.82l-5.09-8.31-5.79-3L348,432.42Z"/><path class="cls-6" d="M451.92,442.61V433.9a6.34,6.34,0,0,0,0-3.76c-.58-2.46-6.07-4.63-6.07-4.63l39.07-31.8L524,378.42a103.21,103.21,0,0,1-16,22.66c-9.74,10.28-12.69,17.23-23.09,25.32-15.13,11.76-4.9,8.08-23.73,15.36"/><path class="cls-7" d="M343.48,430l12.29,5.92s13.59,6.15,13.88,6.69,8,6.33,8.68,6.76,4.48,4.34,4.48,4.34l-1.3-11.1s-1.45-4.81,2.31-4.45,13,1.93,13,1.93,3.33.75,3.47-1.93,0-8.89,0-8.89L388.59,416.7l-10.26-9.55s-12.15-5.06-12.58-5.06S352.3,407,352.3,407l-7.66,11.71Z"/><polygon class="cls-6" points="330.76 362.91 355.07 391.54 377.6 408.24 419.82 385.57 427.51 372.48 413.75 361.18 375.74 354.53 330.76 362.91"/><path class="cls-8" d="M410.75,384.38s-21.9,12.8-24.72,14.1l-12.15,5.64s-1.52,3.47,1.09,5.85,11.92,12.15,11.92,12.15a28,28,0,0,0,5.2,5c2.83,2,9.12,4.92,9.55,4.63s9.11-3.11,9.11-3.11-1.09,0,7.59-1.3a115.48,115.48,0,0,1,22.34-.92c5.2.27,7.8-.81,12.14-2.11s-1.52.86,23.42-11.72S504,396.74,504,396.74a47.3,47.3,0,0,0,13.66-10c5.64-6.29,7.59-11.71,7.59-19.3s-1.3-14.6-2-15.87-6.18-11.57-11.71-13.41-7.59-4.5-17.12-3.79-15.43.9-21,4.43-31,23.21-31,23.21Z"/><path class="cls-5" d="M431.39,334.29s4.64-2.41,6.69-3.19,6.34-.42,8.21,1.6,6.3,7.76,7.84,13.35,4.41,6.45-2.72,11.87c-5.9,4.49-8.49,7.9-12.5,10.41-4.22,2.65-3.62,4.15-3.62,4.15Z"/><polygon class="cls-5" points="407.06 192.24 380.6 205.68 403.11 234.21 430.48 234.21 452.6 213.22 432 176.62 407.06 192.24"/><path class="cls-9" d="M493,205.92c12.43,10.31,16.8,15.51,21.65,26.41s4.45,18,5.42,24.54,3.91,47,4,53.53,2.61,16.91,4.12,21,.87,10.84.76,13.33a10.33,10.33,0,0,1-1.94,4.15,3.83,3.83,0,0,1-6.16.32,57.85,57.85,0,0,0-6.43-6.74c-6.18-5.53-9.86-5.53-16.26-6.51s-17.79,1.08-20.82,2.49A123.42,123.42,0,0,0,466.75,345a4,4,0,0,0-.51.41l-5.37,5.17a3.84,3.84,0,0,1-6.4-1.9l0-.13a25.24,25.24,0,0,0-4.66-10.09c-2.71-3.9-1.85-3.56-5.32-5.53s-4.07-1.11-7.15-1.05l-5.1,2.71c-3.42,1.84-2.69-2.3-2.87-4.74l-.27-3.75s-3-34.15-3.26-35.35-.59-1.43-2.87-1.62c-1.85-.16-2.12-.15-7.75-.22l-83.11-4.07c-2.66-.13-4.76-2-3.72-4.44l1.16-2.77c2.93-6.94,2.39-10.08,4.12-16s2.82-7.15,3.8-10.51.11-4.56,0-9.65,1.95-9.11,5.42-17.68a26,26,0,0,1,7-9.81,3.81,3.81,0,0,1,5.28.29c2.93,3.13,9.22,8.32,20.6,11.15,17,4.23,34.3,4.39,48.9,3.25,15.29-1.19,21.58-4.88,33.72-17.67,7.45-7.85,10.71-10.42,12.91-13.53,1.16-1.64,5.9-2.68,13,1.45Z"/><path class="cls-7" d="M372.69,125.12,362,174.38l18.94,26.32,9.4-2.61s5.46,5.63,10.12,7.52c5.83,2.37,8.82,1.3,11.42,0s4.77-3.76,10.26-10.41,15.91-24.72,16.2-31.08-9-34-9-34L390.62,115Z"/><path class="cls-10" d="M356.07,121.43c-12.38,26.83-7.76,65.3-7.46,67.58,2.5,19.52,4.25,31,7.6,36.85,12.36,21.52,13,13,25.59,20.38"/><path class="cls-11" d="M419.75,107.62c28.7,12.64,25.81,77.46,58.75,88.95"/><path class="cls-11" d="M378.5,125.12c8.69,1,11.17,2.51,22.67,6.18,8.73,2.78,9,2.6,15.44,7.19,3.51,2.5,11.05,9.5,12.75,13.61"/><path class="cls-11" d="M375.72,123.06c13.13,6.39,10.74,5.64,16.38,6.29s10.79,1.22,15.29,2.09a22,22,0,0,1,12.36,7.17c3.14,3.75,8.92,11.95,8.92,11.95"/><path class="cls-12" d="M500.37,246.77s0,0,0,0,0,0,0,0a3.26,3.26,0,0,0,.13-.53c0-.14-.05.07-.13.53"/><path class="cls-12" d="M496.16,226.72v0"/><path class="cls-13" d="M492.69,275.87c-1.73,1.74-4.33,14-6.36,15.91l-2,1.9c2.68-9.87,3.77-21.79,5.78-36.24a243.55,243.55,0,0,1,6.06-30.69c-.16,1.26-5.48,41.66-5.77,44.79-.27,3,8.76-20.71,10-24.75-.56,3-2.75,16.82-4.5,19.82-2,3.48-2,4.93-2,4.93s15-16.77,15.61-16.49S494.43,274.14,492.69,275.87Z"/><path class="cls-12" d="M438.08,331.9a121.35,121.35,0,0,1,12.46-6.58c4.91-2,7.17-1.47,10.35-.58s3.78,1.67,9.54,0c4.92-1.43,6.07-11.57,11-22.84a57.94,57.94,0,0,0,2.85-8.22"/><path class="cls-12" d="M512.35,325.32s-3.11-3.25-11.28-4.48-11.71-2.82-17.56-.65-13.95,4.8-13.95,4.8"/><path class="cls-13" d="M350.59,264.47c2.82,4.55,3.47,10,4.56,12.8s2.6,7.8,3.9.65,3.9-13,5.42-15.18-6.72,22.33-6.72,22.33Z"/><path class="cls-14" d="M438.62,215.27c-1.46,11.17-9.48,14.9-24.89,16-8.07.56-9.66-1.18-9.82-.68,0,0-3.32,2.39-1.84.43s-2.07-1.59-.76-2c1.12-.39,2.39-1.35,3.46-1.71.18-.06,3.28,0,3.45-.06a53.2,53.2,0,0,0,7.12.05c4.32-.24,8.84-.74,14.15-4.93S434,209.65,434,209.65l3.83,2.9Z"/><path class="cls-14" d="M453.8,231.36s3.76,1.73,1.59,14.88,4.48,1.66,4.48,1.66.65.07,2.46-10.05c1.88-10.57.42-10.53.42-10.53Z"/><path class="cls-15" d="M399.53,231.57c.28,0,7.7,2.68,20.22,1.37a66.86,66.86,0,0,0,7.76-1.16c8.71-2.28,9.33-4.89,12.84-5.85,4.58-1.26,4.24-1.21,4.24-1.21"/><path class="cls-16" d="M301.94,282.37s107.13,4.4,114.94,4.62,5.45-.32,7.81.22,2.83.83,3,2.57,1,10.61,2.2,24.2,5.83,48.79,5.83,48.79,1.37,14.56,1.22,13.23,1.24,2.44-.58,3.25c-1.23.55-22.29-2.07-41.95-2.81s-88.83-6.2-88.83-6.2-3.35-.59-3.64-2.66-9.76-65.42-9.76-65.42-1.9-10-2.33-13-.44-5,0-5.31-.15-1.19,3.06-1.48A84.27,84.27,0,0,1,301.94,282.37Z"/><path class="cls-6" d="M358.73,227.43c-9.92-29.32-16.35-52.7-7.31-86,.05-.21.08-.44.11-.66,2.06-13.88,2.22-23.38,10.87-32.4a22.17,22.17,0,0,1,6.13-4.47c7.09-3.58,12.13-12.34,16.15-5.52a11.41,11.41,0,0,1,.66,9.86c-10.48,27.17-37.42,61.16,3.44,86.84a11.07,11.07,0,0,1,2,1.58C417.39,223,402,259.39,369.65,243.2,368.84,242.8,362.05,237.25,358.73,227.43Z"/><path class="cls-17" d="M381,192.64c24.64,19.11,20.78,61.39.76,50.56-4.11-2.22-7.22-6.57-5.9-11C379.69,219.26,388,210.45,381,192.64Z"/><path class="cls-8" d="M372.86,118.77c2.9,20.92,40.58-6.92,55,31.24a2.37,2.37,0,0,0,.17.36c10.18,19.64-6.59,41.34-.9,60a2.46,2.46,0,0,1,.07.29c5.61,28.32,31.56,24.9,47.32,8.73a3.89,3.89,0,0,0,.38-.43c20-24.92-6.09-26.55-18.59-42.4a5,5,0,0,1-.44-.66c-14.41-26.2-3.68-40.54-28.69-63.63-12.82-11.15-12.68-12.66-21.76-16.42-.2-.08-.42-.1-.61-.17-22.29-7.89-28,6-31.83,21.48A4.48,4.48,0,0,0,372.86,118.77Z"/><path class="cls-17" d="M392,95.17l.56.11c2.2.42,4.3.56,4.44.58,1.34.15,14,1.46,21.6,8.09,1.3,1.14,8.45,4.51,11.39,10.9a1.6,1.6,0,0,1-2.1,2.11c-5.88-2.48-12-5.1-12-5.22s-3-.72-5.57-1.68-6.52-2.34-10.81.4-3.64,7.81-8.57,10.11-11.7-.45-13.24-2.81c-3.87-6-1.1-9.68.12-13.16a14.12,14.12,0,0,1,7.89-8.09,17.14,17.14,0,0,0,1.94-.7h0A7.83,7.83,0,0,1,392,95.17Z"/><path class="cls-17" d="M340.19,433.91a3.83,3.83,0,0,0,1.41,3.33c4.43,3,10-.94,11.14-1.81l1.08-.87-4.77-3s-1.68-1.46-1.63-2.11a7.29,7.29,0,0,1,.33-3.69,22,22,0,0,1,.81-3s-2.28,3.75-3.58,6.31S340.19,433.91,340.19,433.91Z"/><path class="cls-17" d="M374.64,404.12a4.79,4.79,0,0,1,0,2.31c-.36.65-1.08,1.81-1.08,1.81s-.22-.8-2.1-1.59a31.23,31.23,0,0,0-4.06-1.34S374.53,403.39,374.64,404.12Z"/><path class="cls-2" d="M269.94,448.62l5.8-6.81a1.68,1.68,0,0,1,1.79-.5l28.05,9.32a1.66,1.66,0,0,1-.57,3.24h-.2c-6.67-.24-7.31-1.2-11.35-2.08-.66-.15-1.5-.18-2.57-.34a14,14,0,0,0-2.5-.37c-6.36.07-13.32.52-17.28.29A1.66,1.66,0,0,1,269.94,448.62Z"/><path class="cls-2" d="M308.89,422.47,316,418.1a.54.54,0,0,0-.16-1l-23.3-5.4a86,86,0,0,0-9.91-1.24,64.8,64.8,0,0,0-10.4-.28,26.53,26.53,0,0,0-3.35.92.54.54,0,0,0-.25.85l8,10.08"/><path class="cls-18" d="M283.19,445.88c-2.14-.65-.86-22.59-.09-23.58,0-1.27,1-3.9,2.86-2.8l0,1.22c0,1.23-.59,2.26-.56,3.24s-.25,1.18-.59,8.53.13,6.78.26,9.06c.29,4.94.16,3.32-.2,3.8a1.42,1.42,0,0,1-.89.61Z"/><path class="cls-18" d="M277,443.19c-1.62-.57-.66-19.7-.08-20.56,0-1.11.77-3.41,2.17-2.45l0,1.07c0,1.07-.44,2-.42,2.82s-.19,1-.45,7.44a37.25,37.25,0,0,0,.2,7.9c.22,4.31.12,2.9-.15,3.32a1.08,1.08,0,0,1-.67.53Z"/><path class="cls-18" d="M290.52,447.46c-2.31-.72-.93-24.89-.11-26,0-1.39,1.1-4.3,3.09-3.09l0,1.35c0,1.35-.64,2.49-.6,3.57s-.28,1.3-.64,9.4.13,7.47.28,10c.31,5.44.17,3.65-.22,4.19a1.55,1.55,0,0,1-1,.67Z"/><path class="cls-18" d="M299.06,450.55c-2.31-.8-.93-27.85-.1-29.07,0-1.57,1.1-4.82,3.09-3.46l0,1.51c0,1.51-.64,2.78-.6,4s-.27,1.45-.64,10.52.14,8.36.28,11.18c.32,6.08.18,4.08-.22,4.68a1.48,1.48,0,0,1-1,.75Z"/><path class="cls-2" d="M315.59,427.5l-.09.16c-1.63,3.11-1.53,2.5-1.64,7.34s-.63,12,0,13.05,1.41,3.62,5.12,4.86,6.56,1,12.69,1.38c2.75.18,5.21.42,7.08.63a1.65,1.65,0,0,0,1.65-2.42,9,9,0,0,1-.88-2.59c-.53-3.1.21-8.83.61-10.86.28-1.45,1.35-5.28,1.93-7.36a1.65,1.65,0,0,0-.93-2l-11.61-5.06c-.11-.05.1.08,0,0-.34-.26,0-.39-1.68-.05-2.06.41-8.61-.76-9.77.07A13.54,13.54,0,0,0,315.59,427.5Z"/><path class="cls-8" d="M256.66,324.09s-8.45,18.41-5.85,26.23S256,362.7,260.13,366s25.59,23.42,25.59,23.42l55.79,47.69.39-.89c.78-1.78,5.57-12.51,10.4-17.74,5.21-5.64,10.63-12.58,16.48-13.45l5.86-.86-82.41-81.9s-.65-1.14-3.9-3.1-11.28-3.05-14.53-3.05-8-.41-11.71,3.05S256.66,324.09,256.66,324.09Z"/><path class="cls-19" d="M448.14,471.93c.48,0,3.62.49,4.17-.2a4.82,4.82,0,0,0,1.62-3.23c.31-2.12,1.91-7.48,1.18-19.29-.71-11.6-.65-10.91-.85-14a9,9,0,0,0-4.78-7.34L451,457Z"/><path class="cls-18" d="M430.3,459.51c1.27-.6-.68-17.71-1.2-18.45-.06-1-.83-3-1.89-2.08l.08,1c.09,1,.48,1.74.51,2.51s.22.91.82,6.65a36.07,36.07,0,0,1,.33,7.1c.09,3.87.08,2.6.33,3s.57.45.57.45Z"/><path class="cls-18" d="M426.24,460.66c1.72-.66-.48-19.17-1.16-20-.05-1.07-1.05-3.25-2.51-2.22l.1,1c.09,1,.6,1.88.62,2.71s.27,1,.94,7.19a31.74,31.74,0,0,1,.26,7.69c0,4.19,0,2.82.37,3.21a1.13,1.13,0,0,0,.76.47Z"/><path class="cls-18" d="M421.17,461.46c2-.78-.72-22.33-1.5-23.26-.07-1.25-1.22-3.78-2.88-2.58l.11,1.21c.12,1.2.71,2.18.74,3.15s.32,1.15,1.14,8.37.34,6.7.37,9c.06,4.88.07,3.28.45,3.73a1.34,1.34,0,0,0,.87.55Z"/><path class="cls-18" d="M416.24,462.23c2.26-1-1.59-26-2.54-27-.12-1.46-1.55-4.37-3.45-2.91l.18,1.4c.17,1.41.89,2.52,1,3.65s.41,1.33,1.6,9.72.62,7.79.73,10.42c.24,5.68.2,3.81.65,4.33a1.6,1.6,0,0,0,1,.61Z"/><circle class="cls-20" cx="363.15" cy="329.41" r="8.57"/><path class="cls-2" d="M311.32,260.89v6.53a3.68,3.68,0,0,1-3.71,3.64h-6.79l-2.89,4.9-2.9-4.9h-5.39a3.67,3.67,0,0,1-3.7-3.64v-6.53a3.66,3.66,0,0,1,3.7-3.63h18A3.67,3.67,0,0,1,311.32,260.89Z"/><path class="cls-18" d="M302.46,263.32a1.49,1.49,0,0,1-.47,1.19l-.92.88-2.22,2.11-2-2.32-.55-.64a1.53,1.53,0,0,1,.16-2.16,1.53,1.53,0,0,1,2.15.17l.45.52.81-.77a1.53,1.53,0,0,1,2.58,1Z"/><path class="cls-2" d="M307.11,222.21v10.9a6.12,6.12,0,0,1-6.18,6.06H289.59l-4.82,8.19-4.83-8.19h-9a6.12,6.12,0,0,1-6.18-6.06v-10.9a6.12,6.12,0,0,1,6.18-6.06h30A6.12,6.12,0,0,1,307.11,222.21Z"/><path class="cls-18" d="M292.34,226.26a2.56,2.56,0,0,1-.79,2L290,229.72l-3.7,3.52L283,229.37l-.92-1.07a2.55,2.55,0,0,1,3.87-3.33l.75.88,1.35-1.29a2.55,2.55,0,0,1,4.31,1.7Z"/><path class="cls-3" d="M337.18,160.79v18.09a10.16,10.16,0,0,1-10.26,10.05H308.1l-8,13.59-8-13.59H277.17a10.15,10.15,0,0,1-10.25-10.05v-18.1a10.15,10.15,0,0,1,10.25-10.05h49.75A10.16,10.16,0,0,1,337.18,160.79Z"/><path class="cls-18" d="M312.66,167.5a4.23,4.23,0,0,1-1.3,3.31l-2.56,2.43-6.13,5.85-5.53-6.43-1.52-1.77a4.23,4.23,0,0,1,6.41-5.52l1.25,1.45,2.24-2.14a4.23,4.23,0,0,1,6,.15A4.15,4.15,0,0,1,312.66,167.5Z"/><path class="cls-2" d="M266.18,196.83v6.53a3.66,3.66,0,0,1-3.7,3.63h-6.8l-2.89,4.91L249.9,207h-5.39a3.67,3.67,0,0,1-3.71-3.63v-6.54a3.67,3.67,0,0,1,3.71-3.63h18A3.67,3.67,0,0,1,266.18,196.83Z"/><path class="cls-18" d="M257.33,199.25a1.58,1.58,0,0,1-.47,1.2l-.93.88-2.21,2.11-2-2.32-.55-.64a1.53,1.53,0,0,1,1.07-2.53,1.58,1.58,0,0,1,1.25.53l.45.53.81-.78a1.53,1.53,0,0,1,2.16.06A1.5,1.5,0,0,1,257.33,199.25Z"/></svg>